<svg id="visual" viewBox="0 0 960 540" width="960" height="540" xmlns="http://www.w3.org/2000/svg" xmlns:xlink="http://www.w3.org/1999/xlink" version="1.1"><rect x="0" y="0" width="960" height="540" fill="#020819"></rect><defs><linearGradient id="grad1_0" x1="43.8%" y1="0%" x2="100%" y2="100%"><stop offset="14.444444444444446%" stop-color="#a2a2a2" stop-opacity="1"></stop><stop offset="85.55555555555554%" stop-color="#a2a2a2" stop-opacity="1"></stop></linearGradient></defs><defs><linearGradient id="grad1_1" x1="43.8%" y1="0%" x2="100%" y2="100%"><stop offset="14.444444444444446%" stop-color="#a2a2a2" stop-opacity="1"></stop><stop offset="85.55555555555554%" stop-color="#696b70" stop-opacity="1"></stop></linearGradient></defs><defs><linearGradient id="grad1_2" x1="43.8%" y1="0%" x2="100%" y2="100%"><stop offset="14.444444444444446%" stop-color="#353842" stop-opacity="1"></stop><stop offset="85.55555555555554%" stop-color="#696b70" stop-opacity="1"></stop></linearGradient></defs><defs><linearGradient id="grad1_3" x1="43.8%" y1="0%" x2="100%" y2="100%"><stop offset="14.444444444444446%" stop-color="#353842" stop-opacity="1"></stop><stop offset="85.55555555555554%" stop-color="#020819" stop-opacity="1"></stop></linearGradient></defs><defs><linearGradient id="grad2_0" x1="0%" y1="0%" x2="56.3%" y2="100%"><stop offset="14.444444444444446%" stop-color="#a2a2a2" stop-opacity="1"></stop><stop offset="85.55555555555554%" stop-color="#a2a2a2" stop-opacity="1"></stop></linearGradient></defs><defs><linearGradient id="grad2_1" x1="0%" y1="0%" x2="56.3%" y2="100%"><stop offset="14.444444444444446%" stop-color="#696b70" stop-opacity="1"></stop><stop offset="85.55555555555554%" stop-color="#a2a2a2" stop-opacity="1"></stop></linearGradient></defs><defs><linearGradient id="grad2_2" x1="0%" y1="0%" x2="56.3%" y2="100%"><stop offset="14.444444444444446%" stop-color="#696b70" stop-opacity="1"></stop><stop offset="85.55555555555554%" stop-color="#353842" stop-opacity="1"></stop></linearGradient></defs><defs><linearGradient id="grad2_3" x1="0%" y1="0%" x2="56.3%" y2="100%"><stop offset="14.444444444444446%" stop-color="#020819" stop-opacity="1"></stop><stop offset="85.55555555555554%" stop-color="#353842" stop-opacity="1"></stop></linearGradient></defs><g transform="translate(960, 0)"><path d="M0 297C-19.2 288.6 -38.5 280.3 -53.1 266.8C-67.6 253.3 -77.5 234.7 -96.4 232.8C-115.4 230.9 -143.3 245.7 -162.8 243.6C-182.2 241.5 -193.1 222.5 -207.9 207.9C-222.6 193.3 -241.2 183.2 -246.9 165C-252.6 146.8 -245.4 120.5 -241.1 99.9C-236.8 79.3 -235.4 64.5 -245.2 48.8C-255 33.1 -276 16.5 -297 0L0 0Z" fill="#1d212d"></path><path d="M0 222.8C-14.4 216.5 -28.9 210.2 -39.8 200.1C-50.7 190 -58.1 176 -72.3 174.6C-86.5 173.2 -107.5 184.3 -122.1 182.7C-136.7 181.1 -144.9 166.8 -155.9 155.9C-167 145 -180.9 137.4 -185.2 123.8C-189.5 110.1 -184.1 90.3 -180.8 74.9C-177.6 59.5 -176.6 48.3 -183.9 36.6C-191.2 24.8 -207 12.4 -222.7 0L0 0Z" fill="#4f5159"></path><path d="M0 148.5C-9.6 144.3 -19.2 140.1 -26.5 133.4C-33.8 126.6 -38.8 117.4 -48.2 116.4C-57.7 115.5 -71.7 122.9 -81.4 121.8C-91.1 120.8 -96.6 111.2 -103.9 103.9C-111.3 96.7 -120.6 91.6 -123.5 82.5C-126.3 73.4 -122.7 60.2 -120.6 49.9C-118.4 39.6 -117.7 32.2 -122.6 24.4C-127.5 16.5 -138 8.3 -148.5 0L0 0Z" fill="#858689"></path><path d="M0 74.3C-4.8 72.2 -9.6 70.1 -13.3 66.7C-16.9 63.3 -19.4 58.7 -24.1 58.2C-28.8 57.7 -35.8 61.4 -40.7 60.9C-45.6 60.4 -48.3 55.6 -52 52C-55.7 48.3 -60.3 45.8 -61.7 41.3C-63.2 36.7 -61.4 30.1 -60.3 25C-59.2 19.8 -58.9 16.1 -61.3 12.2C-63.7 8.3 -69 4.1 -74.2 0L0 0Z" fill="#a2a2a2"></path></g><g transform="translate(0, 540)"><path d="M0 -297C20.6 -299.7 41.2 -302.3 57.9 -291.3C74.7 -280.3 87.5 -255.5 98 -236.5C108.5 -217.5 116.6 -204.3 131.7 -197.1C146.7 -189.8 168.6 -188.6 176.8 -176.8C185 -164.9 179.5 -142.4 197.9 -132.2C216.2 -122 258.4 -124.2 270.7 -112.1C283 -100 265.4 -73.7 264.8 -52.7C264.2 -31.6 280.6 -15.8 297 0L0 0Z" fill="#1d212d"></path><path d="M0 -222.7C15.5 -224.7 30.9 -226.7 43.5 -218.5C56 -210.2 65.6 -191.6 73.5 -177.4C81.3 -163.1 87.5 -153.2 98.8 -147.8C110 -142.4 126.4 -141.5 132.6 -132.6C138.7 -123.7 134.7 -106.8 148.4 -99.2C162.2 -91.5 193.8 -93.2 203 -84.1C212.2 -75 199.1 -55.3 198.6 -39.5C198.2 -23.7 210.5 -11.9 222.8 0L0 0Z" fill="#4f5159"></path><path d="M0 -148.5C10.3 -149.8 20.6 -151.2 29 -145.6C37.3 -140.1 43.7 -127.8 49 -118.3C54.2 -108.8 58.3 -102.1 65.8 -98.5C73.3 -94.9 84.3 -94.3 88.4 -88.4C92.5 -82.5 89.8 -71.2 98.9 -66.1C108.1 -61 129.2 -62.1 135.3 -56.1C141.5 -50 132.7 -36.9 132.4 -26.3C132.1 -15.8 140.3 -7.9 148.5 0L0 0Z" fill="#858689"></path><path d="M0 -74.2C5.2 -74.9 10.3 -75.6 14.5 -72.8C18.7 -70.1 21.9 -63.9 24.5 -59.1C27.1 -54.4 29.2 -51.1 32.9 -49.3C36.7 -47.5 42.1 -47.2 44.2 -44.2C46.2 -41.2 44.9 -35.6 49.5 -33.1C54.1 -30.5 64.6 -31.1 67.7 -28C70.7 -25 66.4 -18.4 66.2 -13.2C66.1 -7.9 70.2 -4 74.3 0L0 0Z" fill="#a2a2a2"></path></g></svg>