<svg id="visual" viewBox="0 0 900 600" width="900" height="600" xmlns="http://www.w3.org/2000/svg" xmlns:xlink="http://www.w3.org/1999/xlink" version="1.1"><path d="M182 0L174.8 14.3C167.7 28.7 153.3 57.3 153.3 85.8C153.3 114.3 167.7 142.7 180.7 171.2C193.7 199.7 205.3 228.3 203 257C200.7 285.7 184.3 314.3 172.5 343C160.7 371.7 153.3 400.3 151.7 428.8C150 457.3 154 485.7 175.3 514.2C196.7 542.7 235.3 571.3 254.7 585.7L274 600L0 600L0 585.7C0 571.3 0 542.7 0 514.2C0 485.7 0 457.3 0 428.8C0 400.3 0 371.7 0 343C0 314.3 0 285.7 0 257C0 228.3 0 199.7 0 171.2C0 142.7 0 114.3 0 85.8C0 57.3 0 28.7 0 14.3L0 0Z" fill="#00cccc"></path><path d="M197 0L195.5 14.3C194 28.7 191 57.3 182 85.8C173 114.3 158 142.7 154.3 171.2C150.7 199.7 158.3 228.3 165.5 257C172.7 285.7 179.3 314.3 183.7 343C188 371.7 190 400.3 184.5 428.8C179 457.3 166 485.7 167.5 514.2C169 542.7 185 571.3 193 585.7L201 600L0 600L0 585.7C0 571.3 0 542.7 0 514.2C0 485.7 0 457.3 0 428.8C0 400.3 0 371.7 0 343C0 314.3 0 285.7 0 257C0 228.3 0 199.7 0 171.2C0 142.7 0 114.3 0 85.8C0 57.3 0 28.7 0 14.3L0 0Z" fill="#00686a"></path><path d="M76 0L85.7 14.3C95.3 28.7 114.7 57.3 119.7 85.8C124.7 114.3 115.3 142.7 112.7 171.2C110 199.7 114 228.3 105.2 257C96.3 285.7 74.7 314.3 68.5 343C62.3 371.7 71.7 400.3 78.3 428.8C85 457.3 89 485.7 97.8 514.2C106.7 542.7 120.3 571.3 127.2 585.7L134 600L0 600L0 585.7C0 571.3 0 542.7 0 514.2C0 485.7 0 457.3 0 428.8C0 400.3 0 371.7 0 343C0 314.3 0 285.7 0 257C0 228.3 0 199.7 0 171.2C0 142.7 0 114.3 0 85.8C0 57.3 0 28.7 0 14.3L0 0Z" fill="#000000"></path></svg>