<svg id="visual" viewBox="0 0 900 600" width="900" height="600" xmlns="http://www.w3.org/2000/svg" xmlns:xlink="http://www.w3.org/1999/xlink" version="1.1"><path d="M128 0L125.3 14.3C122.7 28.7 117.3 57.3 113.5 85.8C109.7 114.3 107.3 142.7 107 171.2C106.7 199.7 108.3 228.3 107.5 257C106.7 285.7 103.3 314.3 110.3 343C117.3 371.7 134.7 400.3 141.5 428.8C148.3 457.3 144.7 485.7 134.5 514.2C124.3 542.7 107.7 571.3 99.3 585.7L91 600L0 600L0 585.7C0 571.3 0 542.7 0 514.2C0 485.7 0 457.3 0 428.8C0 400.3 0 371.7 0 343C0 314.3 0 285.7 0 257C0 228.3 0 199.7 0 171.2C0 142.7 0 114.3 0 85.8C0 57.3 0 28.7 0 14.3L0 0Z" fill="#00cccc"></path><path d="M94 0L94.8 14.3C95.7 28.7 97.3 57.3 93.5 85.8C89.7 114.3 80.3 142.7 77.2 171.2C74 199.7 77 228.3 84.2 257C91.3 285.7 102.7 314.3 105.7 343C108.7 371.7 103.3 400.3 103.7 428.8C104 457.3 110 485.7 104.7 514.2C99.3 542.7 82.7 571.3 74.3 585.7L66 600L0 600L0 585.7C0 571.3 0 542.7 0 514.2C0 485.7 0 457.3 0 428.8C0 400.3 0 371.7 0 343C0 314.3 0 285.7 0 257C0 228.3 0 199.7 0 171.2C0 142.7 0 114.3 0 85.8C0 57.3 0 28.7 0 14.3L0 0Z" fill="#00686a"></path><path d="M25 0L31.5 14.3C38 28.7 51 57.3 53.3 85.8C55.7 114.3 47.3 142.7 40.5 171.2C33.7 199.7 28.3 228.3 28.2 257C28 285.7 33 314.3 33 343C33 371.7 28 400.3 26.7 428.8C25.3 457.3 27.7 485.7 34.3 514.2C41 542.7 52 571.3 57.5 585.7L63 600L0 600L0 585.7C0 571.3 0 542.7 0 514.2C0 485.7 0 457.3 0 428.8C0 400.3 0 371.7 0 343C0 314.3 0 285.7 0 257C0 228.3 0 199.7 0 171.2C0 142.7 0 114.3 0 85.8C0 57.3 0 28.7 0 14.3L0 0Z" fill="#000000"></path></svg>